# xmcd
#
# Track frame offsets:
#  150
#  18391
#  36764
#  50153
#  68161
#  82790
#  100798
#  114077
#  127920
#  143927
#  155047
#
# Disc length: 2283 seconds
#
# Revision: 0
# Processed by: cddbd v1.5.1PL2 Copyright (c) Steve Scherf et al.
# Submitted via: Collectorz.com_Music_Collector 6.11
#
DISCID=8808e90b
DTITLE=John Hiatt - Crossing Muddy Waters
DYEAR=2000
DGENRE=Rock
TTITLE0=Lincoln Town
TTITLE1=Crossing Muddy Waters
TTITLE2=What Do We Do Now
TTITLE3=Only The Song Survives
TTITLE4=Lift Up Every Stone
TTITLE5=Take It Down
TTITLE6=Gone
TTITLE7=Take It Back
TTITLE8=Mr. Stanley
TTITLE9=God's Golden Eyes
TTITLE10=Before I Go
EXTD=
EXTT0=
EXTT1=
EXTT2=
EXTT3=
EXTT4=
EXTT5=
EXTT6=
EXTT7=
EXTT8=
EXTT9=
EXTT10=
PLAYORDER=
